<?xml version="1.0" encoding="UTF-8"?>
<!DOCTYPE svg PUBLIC "-//W3C//DTD SVG 1.1//EN" "http://www.w3.org/Graphics/SVG/1.1/DTD/svg11.dtd">
<svg version="1.1" xmlns="http://www.w3.org/2000/svg" xmlns:xlink="http://www.w3.org/1999/xlink" x="0" y="0" width="200" height="80" viewBox="0, 0, 200, 80">
  <g id="Layer_1">
    <path d="M30.821,39.481 Q30.821,44.37 29.008,48.133 Q27.195,51.897 23.856,53.928 Q20.517,55.959 16.248,55.959 Q11.979,55.959 8.675,53.997 Q5.37,52.035 3.523,48.386 Q1.675,44.737 1.583,40.009 L1.583,38.127 Q1.583,33.216 3.385,29.464 Q5.187,25.712 8.549,23.669 Q11.911,21.627 16.202,21.627 Q20.448,21.627 23.775,23.646 Q27.103,25.666 28.95,29.395 Q30.798,33.125 30.821,37.944 z M22.628,38.082 Q22.628,33.102 20.964,30.52 Q19.3,27.938 16.202,27.938 Q10.144,27.938 9.799,37.026 L9.776,39.481 Q9.776,44.393 11.406,47.032 Q13.035,49.671 16.248,49.671 Q19.3,49.671 20.953,47.078 Q22.605,44.484 22.628,39.619 z" fill="#FFFFFF"/>
    <path d="M46.334,43.062 L43.03,46.688 L43.03,55.5 L34.975,55.5 L34.975,22.086 L43.03,22.086 L43.03,36.819 L45.83,32.574 L53.036,22.086 L62.996,22.086 L51.705,36.865 L62.996,55.5 L53.449,55.5 z" fill="#FFFFFF"/>
    <path d="M77.454,43.704 L73.093,43.704 L73.093,55.5 L65.038,55.5 L65.038,22.086 L78.188,22.086 Q84.132,22.086 87.482,24.725 Q90.833,27.364 90.833,32.184 Q90.833,35.672 89.422,37.967 Q88.01,40.262 85.004,41.685 L91.98,55.156 L91.98,55.5 L83.352,55.5 z M73.093,37.485 L78.188,37.485 Q80.483,37.485 81.642,36.28 Q82.801,35.075 82.801,32.918 Q82.801,30.761 81.63,29.533 Q80.46,28.305 78.188,28.305 L73.093,28.305 z" fill="#FFFFFF"/>
    <path d="M120.639,46.137 L105.469,46.137 L102.027,55.5 L99.066,55.5 L111.711,22.086 L114.396,22.086 L127.042,55.5 L124.104,55.5 z M106.341,43.727 L119.744,43.727 L113.042,25.528 z" fill="#FFFFFF"/>
    <path d="M134.775,41.891 L134.775,55.5 L131.953,55.5 L131.953,22.086 L143.335,22.086 Q148.545,22.086 151.563,24.748 Q154.581,27.41 154.581,32.069 Q154.581,36.773 151.677,39.332 Q148.774,41.891 143.267,41.891 z M134.775,39.504 L143.335,39.504 Q147.443,39.504 149.601,37.554 Q151.758,35.603 151.758,32.115 Q151.758,28.649 149.612,26.595 Q147.466,24.542 143.519,24.496 L134.775,24.496 z" fill="#FFFFFF"/>
    <path d="M164.334,55.5 L161.511,55.5 L161.511,22.086 L164.334,22.086 z" fill="#FFFFFF"/>
  </g>
</svg>
