<svg xmlns="http://www.w3.org/2000/svg" viewBox="0 0 1096.94 312.69"><defs><style>.cls-1{fill:#262626;}.cls-2{fill:#005dbf;}.cls-3{fill:#007cff;}.cls-4{fill:#003e80;}</style></defs><title>Asset 2</title><g id="Layer_2" data-name="Layer 2"><g id="Layer_1-2" data-name="Layer 1"><path class="cls-1" d="M57.64,296.88A106.6,106.6,0,0,1,15,252Q0,222.92,0,183.82T15.13,115.3Q30.27,85.9,58,69.74t64.43-16.15q36.39,0,63.93,16.15T229,115.3q15.13,29.42,15.14,68.52,0,38.76-15,68t-42.5,45q-27.54,15.81-64.27,15.81Q85.35,312.69,57.64,296.88Zm88.57-44.54q8.85-7.32,12.93-23.64t4.08-43.86q0-42.17-9.53-60.53T122.41,106q-22.11,0-31.79,18.36t-9.69,60.53q0,27.54,4.08,43.86T98.1,252.34q9,7.3,24.31,7.31Q137.38,259.65,146.21,252.34Z"/><path class="cls-1" d="M729,302.15a7.29,7.29,0,0,1-1.87,5.1,6.38,6.38,0,0,1-4.93,2h-66q-7.14,0-9.18-7.14l-32-87.73a7.63,7.63,0,0,0-3.41-4.08c-1.58-.9-4-1.36-7.13-1.36H588.93a3.6,3.6,0,0,0-3.06,1.36,4.21,4.21,0,0,0-1,2.38v86.71q0,5.44-2.72,7.65c-1.81,1.48-4.65,2.21-8.5,2.21H516.51c-3.4,0-5.73-.68-7-2s-1.87-3.51-1.87-6.46v-236q0-7.81,6.46-7.82H627.7Q677,57,704.2,75.86t27.21,53.21q0,23.46-12.41,41.83t-32.14,25.84a3.52,3.52,0,0,0-2,3.4,10.91,10.91,0,0,0,.68,3.06l42.85,95.21A8.56,8.56,0,0,1,729,302.15Zm-84.5-150.46q7-6.65,7-17.86,0-12.57-8.33-19.55t-20.57-7H592.67q-4.42,0-6.12,1.53t-1.7,5.27v37.07c0,2.49.4,4.31,1.19,5.44s2.32,1.7,4.59,1.7h34Q637.56,158.32,644.53,151.69Z"/><path class="cls-1" d="M823.22,57q6.12,0,6.12,7.14v235.3q0,5.44-2.72,7.65c-1.82,1.48-4.65,2.21-8.5,2.21H761.33q-5.1,0-7.14-2t-2-6.46v-236a8.76,8.76,0,0,1,1.7-5.78,5.85,5.85,0,0,1,4.76-2Z"/><path class="cls-1" d="M843.62,307.42a7.51,7.51,0,0,1-1.7-5.27,17.5,17.5,0,0,1,1-5.44l82.28-231.9c1.14-3,2.38-5,3.75-6.12s3.51-1.7,6.46-1.7h67a11.48,11.48,0,0,1,7.31,2.55,16.12,16.12,0,0,1,4.93,6.63l81.61,231.56a18.93,18.93,0,0,1,.68,4.08,9.91,9.91,0,0,1-1.36,5.27,4.47,4.47,0,0,1-4.08,2.21h-66.64q-5.79,0-7.49-5.78l-13.26-39.1a10.85,10.85,0,0,0-1.87-3.23,4.59,4.59,0,0,0-3.23-.85H926.92c-2.71,0-4.42,1.25-5.09,3.74l-14,40.12q-2,5.1-8.16,5.1H848A5.67,5.67,0,0,1,843.62,307.42ZM982,202.52q3.74,0,3.74-3.4a21,21,0,0,0-.68-3.4l-20.4-58.14q-.69-1.71-2-1.71t-2,1.71l-20.74,57.8a7.49,7.49,0,0,0-.68,3.4c0,2.5,1.36,3.74,4.08,3.74Z"/><path class="cls-1" d="M497.34,302q0,6.22-7.48,6.22h-59.7q-11.21,0-15-8.3L364.57,184.51c-1.11-1.66-2.22-2.49-3.32-2.49q-2.08,0-5.82,4.56L326,223c-1.66,1.94-2.49,6.32-2.49,10.48v62.68q0,6.65-3.32,9.35t-10.38,2.69H263.5q-6.22,0-8.72-2.49t-2.49-7.88V66.2c0-3,.69-5.4,2.08-7.06a7.14,7.14,0,0,1,5.81-2.49H316q7.47,0,7.48,8.72v48.56c0,3.32-.66,5.65.73,5.65,1.11,0,3.83-1.63,5.49-3.57L406.08,8.9a23.43,23.43,0,0,1,7.27-6.85Q416.86.18,423.93.18H487a14.44,14.44,0,0,1,7.89,1.87,5.88,5.88,0,0,1,2.9,5.19,6.76,6.76,0,0,1-2.08,5L406.42,95.67a10.54,10.54,0,0,0-2.91,7,14,14,0,0,0,1.66,6.23l90.5,186.4A14.75,14.75,0,0,1,497.34,302Z"/><path class="cls-1" d="M320.15,230.57q-3.33,2.7-10.38,2.7H263.5q-6.22,0-8.72-2.5c-1.66-1.66-2.49-4.28-2.49-7.88V66.2c0-3,.69-5.4,2.08-7.06a7.14,7.14,0,0,1,5.81-2.49H316q7.47,0,7.48,8.72v48.56c0,3.32-1.33,5.65.06,5.65,1.11,0,4.5-1.63,6.16-3.57L406.08,8.9a23.43,23.43,0,0,1,7.27-6.85Q416.86.18,423.93.18H487a14.44,14.44,0,0,1,7.89,1.87,5.88,5.88,0,0,1,2.9,5.19,6.76,6.76,0,0,1-2.08,5L427.67,95.67"/><path class="cls-2" d="M422.74,104.92,321.39,229.06a7.25,7.25,0,0,1-3.13,2.37l-4.61,1.67q-4.84,1.07-10.07-3.06l-30.27-27q-4.6-3.65-4.27-7.88c.24-2.82,1.93-6.23,5.1-10.25L406,8.73c2.67-3.39,5.92-6.29,8.41-7.33S420.59-.07,424.9,0l63.54.17c3.2.06,8.23,1.78,9,4.87a5.68,5.68,0,0,1,.08,4.25c-.75,2-3.4,5.07-4.62,6.62l-70.18,89"/><path class="cls-3" d="M323.47,113.93l.47,111a3.87,3.87,0,0,1-1.05,2.68l-2.74,2.93q-3.33,2.7-10.38,2.7H263.5q-6.22,0-8.72-2.5c-1.66-1.66-2.49-4.28-2.49-7.88V66.2c0-3,.69-5.4,2.08-7.06a7.14,7.14,0,0,1,5.81-2.49H316q7.47,0,7.48,8.72v48.56"/><polygon class="cls-4" points="323.49 118.93 344.05 201.31 323.82 225.92 323.49 118.93"/></g></g></svg>